PathFileType	4	(X/Y/Z)	/Users/itak/Documents/Research/Walk-IL/dataset/trc/00062_00006.trc
DataRate	CameraRate	NumFrames	NumMarkers	Units	OrigDataRate	OrigDataStartFrame	OrigNumFrames
100.000000	100.000000	4	53	mm	100.000000	173	693
Frame#	Time	RPSI			LPSI			L3			STRN			T10			C7			CLAV			RBAK			LBAK			LSHO			LUPA			LAEL			LAOL			LWTS			LWPS			LFRA			LIFD			LHPS			LHTS			RSHO			RUPA			RAEL			RAOL			RWTS			RWPS			RFRA			RIFD			RHTS			RHPS			RBHD			LFHD			RFHD			LBHD			LHIP			RHIP			RASI			LASI			LKNE			LTHI			LANK			LTIP			LTOE			LMT1			LMT5			LHEE			RKNE			RTHI			RANK			RTIP			RTOE			RMT1			RMT5			RHEE			
		X1	Y1	Z1	X2	Y2	Z2	X3	Y3	Z3	X4	Y4	Z4	X5	Y5	Z5	X6	Y6	Z6	X7	Y7	Z7	X8	Y8	Z8	X9	Y9	Z9	X10	Y10	Z10	X11	Y11	Z11	X12	Y12	Z12	X13	Y13	Z13	X14	Y14	Z14	X15	Y15	Z15	X16	Y16	Z16	X17	Y17	Z17	X18	Y18	Z18	X19	Y19	Z19	X20	Y20	Z20	X21	Y21	Z21	X22	Y22	Z22	X23	Y23	Z23	X24	Y24	Z24	X25	Y25	Z25	X26	Y26	Z26	X27	Y27	Z27	X28	Y28	Z28	X29	Y29	Z29	X30	Y30	Z30	X31	Y31	Z31	X32	Y32	Z32	X33	Y33	Z33	X34	Y34	Z34	X35	Y35	Z35	X36	Y36	Z36	X37	Y37	Z37	X38	Y38	Z38	X39	Y39	Z39	X40	Y40	Z40	X41	Y41	Z41	X42	Y42	Z42	X43	Y43	Z43	X44	Y44	Z44	X45	Y45	Z45	X46	Y46	Z46	X47	Y47	Z47	X48	Y48	Z48	X49	Y49	Z49	X50	Y50	Z50	X51	Y51	Z51	X52	Y52	Z52	X53	Y53	Z53	

174	1.73	352.1369323730469	1018.01904296875	1116.310302734375	311.4566040039062	1004.851501464844	947.3927612304688	337.1715698242188	1068.506469726562	1027.549926757812	593.8695068359375	1259.2490234375	990.5083618164062	326.290283203125	1202.603393554688	1025.97314453125	392.7490234375	1467.591186523438	1023.370422363281	565.802978515625	1374.172607421875	995.58740234375	335.5509948730469	1329.275634765625	1100.588256835938	354.1467895507812	1434.474365234375	927.2708129882812	443.6363220214844	1439.30712890625	840.3404541015625	403.3164672851562	1321.357299804688	760.0218505859375	397.6988525390625	1109.270751953125	721.7156982421875	358.511474609375	1090.454467773438	821.4309692382812	487.9288940429688	862.4073486328125	744.013427734375	416.9774169921875	858.9437255859375	698.3471069335938	408.7547607421875	1000.480163574219	702.1002807617188	486.6022338867188	676.64306640625	757.2400512695312	443.005859375	774.6019897460938	693.0675659179688	502.3170166015625	778.1541137695312	732.8215942382812	478.3044128417969	1425.722900390625	1185.441040039062	469.1703186035156	1358.0390625	1248.2685546875	411.5062255859375	1107.37646484375	1296.323852539062	420.7516479492188	1076.60205078125	1201.560668945312	528.2278442382812	842.5647583007812	1264.687866210938	457.988525390625	833.9612426757812	1315.608154296875	416.350341796875	1025.1181640625	1308.5654296875	517.4797973632812	655.0950317382812	1247.690307617188	543.96142578125	738.788330078125	1268.00146484375	486.5650329589844	741.2745971679688	1319.376220703125	429.4886474609375	1650.927124023438	1021.793334960938	643.7172241210938	1658.171142578125	991.51123046875	559.2166137695312	1666.117309570312	898.5035400390625	528.4824829101562	1633.848266601562	1116.269409179688	401.372314453125	938.7218017578125	844.2732543945312	421.7975158691406	946.3410034179688	1187.9619140625	544.013916015625	955.9374389648438	1152.307983398438	518.103271484375	946.6459350585938	884.7552490234375	610.6930541992188	508.8979797363281	914.4148559570312	532.1763305664062	628.5050659179688	866.4395141601562	556.3124389648438	45.26463317871094	944.1701049804688	584.1150512695312	255.8757781982422	916.2157592773438	761.8684692382812	40.55435180664062	921.927001953125	721.3729248046875	37.65022659301758	979.5843505859375	651.93212890625	42.27167510986328	891.222900390625	519.2310791015625	42.31290435791016	1028.114624023438	472.1523742675781	501.7749633789062	1220.979736328125	493.8235473632812	771.0476684570312	1200.117431640625	92.66488647460938	204.8526306152344	1328.825439453125	390.8883972167969	411.1310729980469	1256.72021484375	217.2466278076172	47.72964859008789	1295.176025390625	178.1486511230469	81.91899108886719	1251.22509765625	161.3824157714844	103.4554672241211	1346.811645507812	65.99396514892578	240.0165557861328	1271.617919921875	
175	1.74	361.3217163085938	1017.611511230469	1112.018310546875	318.8898620605469	1005.5302734375	943.5914916992188	345.1762390136719	1069.668579101562	1022.703063964844	601.9039916992188	1260.182861328125	984.079833984375	334.7493896484375	1203.672241210938	1020.468811035156	400.920654296875	1468.681884765625	1017.739135742188	573.9183349609375	1375.119995117188	989.3167114257812	344.0872802734375	1330.34521484375	1095.111694335938	361.9711303710938	1435.472900390625	921.7154541015625	451.2184143066406	1440.213989257812	834.5792846679688	411.1621704101562	1322.348510742188	754.1167602539062	406.4726257324219	1110.328979492188	714.9645385742188	366.8731384277344	1091.0439453125	814.3876953125	499.725341796875	864.7559814453125	738.09326171875	429.1615905761719	860.1055297851562	691.9935913085938	418.8973388671875	1001.57373046875	695.455078125	501.3853454589844	679.109375	751.6709594726562	456.5025939941406	776.2151489257812	687.0855712890625	515.523681640625	780.80029296875	727.1275024414062	487.2394714355469	1426.690307617188	1179.472534179688	478.1668701171875	1359.099731445312	1242.31787109375	419.6980590820312	1108.898559570312	1290.9658203125	428.6743774414062	1077.8125	1196.2529296875	534.8758544921875	843.3447875976562	1259.949829101562	464.7332458496094	835.410400390625	1311.0576171875	424.1856079101562	1026.659545898438	1303.418090820312	522.8961791992188	655.905029296875	1243.31005859375	549.8602294921875	739.4609375	1263.479125976562	492.5032653808594	742.3847045898438	1314.789794921875	437.4629516601562	1651.809326171875	1016.588256835938	651.4478759765625	1659.476440429688	984.180908203125	565.9728393554688	1667.453491210938	892.0462036132812	537.4695434570312	1634.765747070312	1110.02001953125	407.390869140625	939.465576171875	839.1426391601562	432.5345458984375	945.744873046875	1182.241333007812	554.2317504882812	956.834716796875	1145.23681640625	524.6329956054688	947.531494140625	878.0799560546875	613.6708374023438	508.1422729492188	911.2822875976562	535.875	628.029296875	862.8807373046875	556.352783203125	45.18948364257812	944.0875244140625	585.2423706054688	255.4043884277344	914.8715209960938	761.7861938476562	40.57696914672852	922.1104736328125	721.4014282226562	37.61816787719727	979.6148681640625	652.0140380859375	42.16347503662109	891.2185668945312	519.1822509765625	42.36085510253906	1028.013549804688	495.4734497070312	500.9403991699219	1211.956665039062	509.3897399902344	771.306884765625	1192.474487304688	110.7396011352539	214.1879730224609	1325.017578125	414.1823120117188	411.10888671875	1248.261840820312	231.7179870605469	52.75223922729492	1288.63330078125	191.4035797119141	88.77902984619141	1245.011352539062	177.3616180419922	111.2026062011719	1341.006225585938	83.73796081542969	250.0081787109375	1268.58740234375	
176	1.75	370.554443359375	1017.209838867188	1108.009521484375	326.186767578125	1006.149108886719	940.15673828125	353.035400390625	1070.840576171875	1018.20263671875	609.7674560546875	1261.049926757812	977.7156372070312	342.9855651855469	1204.706298828125	1015.27978515625	408.9651794433594	1469.730224609375	1012.257263183594	581.8726806640625	1375.99658203125	983.1263427734375	352.5439147949219	1331.379150390625	1089.854858398438	369.5699768066406	1436.418701171875	916.3424682617188	458.5382385253906	1441.014770507812	828.945556640625	418.7292175292969	1323.1875	748.4131469726562	415.0542907714844	1111.296020507812	708.3450927734375	375.0967102050781	1091.463989257812	807.4865112304688	511.5222473144531	867.1497192382812	732.1705932617188	441.3523864746094	861.2738037109375	685.6549072265625	428.924560546875	1002.617980957031	688.8976440429688	516.5035400390625	681.67822265625	745.8766479492188	470.1405639648438	777.905029296875	681.02685546875	528.85986328125	783.583740234375	721.3291015625	496.1121826171875	1427.601806640625	1173.619750976562	487.0784606933594	1360.12841796875	1236.501953125	427.7009582519531	1110.375732421875	1285.710083007812	436.4135131835938	1079.006958007812	1191.032470703125	541.3637084960938	844.1298217773438	1255.115478515625	471.4013366699219	836.8197021484375	1306.516479492188	431.829345703125	1028.133911132812	1298.338500976562	528.2692260742188	656.7318725585938	1238.842407226562	555.6900024414062	740.1556396484375	1258.821044921875	498.4474182128906	743.4776000976562	1310.14501953125	445.3793334960938	1652.646728515625	1011.354797363281	659.0888671875	1660.693237304688	976.8311767578125	572.652099609375	1668.686401367188	885.5794067382812	546.3557739257812	1635.65673828125	1103.759643554688	413.0739135742188	940.162353515625	834.1778564453125	443.5269470214844	945.252197265625	1176.63720703125	564.514404296875	957.7151489257812	1137.990478515625	530.8432006835938	948.4255981445312	871.3466186523438	616.35009765625	507.3684387207031	908.0894775390625	539.2649536132812	627.5697631835938	859.32373046875	556.3699951171875	45.10635375976562	943.999755859375	586.2603759765625	254.9412536621094	913.5155639648438	761.6704711914062	40.64862442016602	922.2412109375	721.3746948242188	37.60327911376953	979.589599609375	652.05908203125	42.04204559326172	891.1687622070312	519.0944213867188	42.40862274169922	1027.881591796875	518.7537231445312	500.4669494628906	1202.185668945312	525.0364990234375	771.7276000976562	1184.597412109375	129.9800262451172	222.3130340576172	1320.607177734375	437.5106811523438	411.3212280273438	1239.067138671875	247.9711456298828	58.14780426025391	1280.334716796875	206.5797119140625	95.76709747314453	1237.68359375	195.4246673583984	118.4137802124023	1334.14306640625	102.2741165161133	258.8244934082031	1265.079467773438	
177	1.76	379.8998107910156	1016.9130859375	1104.201171875	333.3950805664062	1006.7451171875	937.02978515625	360.8175354003906	1072.028442382812	1014.04345703125	617.4688720703125	1261.883178710938	971.3779907226562	350.9984741210938	1205.698486328125	1010.41015625	416.8880920410156	1470.738891601562	1006.9287109375	589.6668090820312	1376.833618164062	976.9943237304688	360.9366149902344	1332.37744140625	1084.826904296875	376.9359436035156	1437.321899414062	911.168212890625	465.5733337402344	1441.751342773438	823.4420776367188	425.9803771972656	1323.919921875	742.912353515625	423.4126892089844	1112.206909179688	701.8983154296875	383.1915283203125	1091.761474609375	800.7880249023438	523.2997436523438	869.6292114257812	726.2567138671875	453.5054931640625	862.5072631835938	679.3596801757812	438.8057556152344	1003.659912109375	682.4658813476562	531.8792114257812	684.3961791992188	739.8521728515625	483.8612670898438	779.7296752929688	674.9024047851562	542.276611328125	786.5393676757812	715.427001953125	504.93603515625	1428.482299804688	1167.868774414062	495.9297790527344	1361.152587890625	1230.80908203125	435.5387573242188	1111.841552734375	1280.546264648438	443.9879760742188	1080.223266601562	1185.886962890625	547.7037963867188	844.9423828125	1250.194091796875	477.9804992675781	838.2156982421875	1301.953857421875	439.2994079589844	1029.58251953125	1293.313354492188	533.59619140625	657.5953979492188	1234.29296875	561.468505859375	740.8917846679688	1254.042236328125	504.3880920410156	744.5890502929688	1305.447143554688	453.2393493652344	1653.462768554688	1006.090942382812	666.640380859375	1661.819702148438	969.4638061523438	579.2567138671875	1669.818237304688	879.1000366210938	555.145751953125	1636.533935546875	1097.4873046875	418.4535217285156	940.8248291015625	829.3507690429688	454.7881774902344	944.9647827148438	1171.128662109375	574.864990234375	958.6177978515625	1130.547729492188	536.770751953125	949.343017578125	864.541748046875	618.7421264648438	506.5704345703125	904.8687744140625	542.3470458984375	627.107177734375	855.7838134765625	556.3785400390625	45.01914596557617	943.9085083007812	587.19580078125	254.4842224121094	912.1676635742188	761.5476684570312	40.72946929931641	922.323974609375	721.3124389648438	37.58977127075195	979.5223999023438	652.0867919921875	41.90577697753906	891.07958984375	518.9828491210938	42.46283721923828	1027.719482421875	541.89501953125	500.3910217285156	1191.668701171875	540.7161865234375	772.342041015625	1176.464477539062	150.2895660400391	229.1285247802734	1315.5751953125	460.7835083007812	411.7924194335938	1229.1611328125	265.80859375	63.43282318115234	1270.490112304688	223.6428527832031	102.5541458129883	1229.441162109375	215.376220703125	124.9072952270508	1326.374877929688	121.5827941894531	266.3133544921875	1261.045532226562	
